<svg width="60" height="43" viewBox="0 0 60 43" fill="none" xmlns="http://www.w3.org/2000/svg">
<g clip-path="url(#clip0_250_691)">
<path d="M18.49 24.3685C22.8 24.3685 26.56 21.9701 28.56 18.4081C30.57 21.9701 34.32 24.3685 38.63 24.3685C45.05 24.3685 50.25 19.0613 50.25 12.509C50.25 5.95658 45.06 0.63916 38.64 0.63916C34.33 0.63916 30.57 3.03761 28.57 6.59957C26.56 3.03761 22.81 0.63916 18.5 0.63916C12.07 0.63916 6.85999 5.94638 6.85999 12.4987C6.85999 19.0511 12.06 24.3583 18.48 24.3583L18.49 24.3685ZM38.64 6.88535C41.68 6.88535 44.15 9.40627 44.15 12.509C44.15 15.6116 41.68 18.1326 38.64 18.1326C35.6 18.1326 33.13 15.6116 33.13 12.509C33.13 9.40627 35.6 6.88535 38.64 6.88535ZM18.49 6.88535C21.53 6.88535 24 9.40627 24 12.509C24 15.6116 21.53 18.1326 18.49 18.1326C15.45 18.1326 12.98 15.6116 12.98 12.509C12.98 9.40627 15.45 6.88535 18.49 6.88535Z" fill="white"/>
<path d="M58.89 29.9411L51.59 23.8174C51.45 23.6949 51.23 23.7154 51.11 23.8582L49.23 26.1342C44.08 32.3804 36.87 35.6872 28.38 35.6872C19.04 35.6872 11.4 31.768 6.19999 24.3686C6.09999 24.2257 5.89999 24.195 5.75999 24.3073L1.10999 28.155C0.97999 28.2571 0.95999 28.451 1.04999 28.5939C7.45999 37.5243 17.09 42.4233 28.37 42.4233C37.61 42.4233 45.65 39.2288 51.84 33.1357C51.96 33.0132 52.15 33.003 52.29 33.1153L54.7 35.1361C54.85 35.2586 55.06 35.2381 55.18 35.085L58.93 30.4208C59.05 30.2677 59.03 30.0534 58.88 29.9309L58.89 29.9411Z" fill="white"/>
</g>
<defs>
<clipPath id="clip0_250_691">
<rect width="58.02" height="41.7841" fill="white" transform="translate(0.98999 0.63916)"/>
</clipPath>
</defs>
</svg>
